<svg width="20" height="23" viewBox="0 0 20 23" fill="none" xmlns="http://www.w3.org/2000/svg">
<path d="M8.59177 0.50313C8.98896 0.177781 9.48656 0 10 0C10.5134 0 11.011 0.177781 11.4082 0.50313L19.1582 6.82195C19.4219 7.03815 19.6343 7.31028 19.7799 7.61865C19.9254 7.92701 20.0006 8.26389 20 8.60489V20.0666C20 21.3296 18.9929 22.3531 17.75 22.3531H14.75C13.5071 22.3531 12.5 21.3296 12.5 20.0666V14.559C12.5 14.1384 12.1647 13.7972 11.75 13.7972H8.25C7.83588 13.7972 7.5 14.1384 7.5 14.559V20.0672C7.5 21.3302 6.49294 22.3537 5.25 22.3537H2.25C1.00765 22.3531 4.02167e-06 21.3296 4.02167e-06 20.0666V8.60489C-0.000633626 8.26389 0.074562 7.92701 0.220147 7.61865C0.365732 7.31028 0.578063 7.03815 0.841768 6.82195L8.59177 0.50313ZM10.4694 1.69195C10.337 1.58357 10.1711 1.52436 10 1.52436C9.82887 1.52436 9.66302 1.58357 9.53059 1.69195L1.78059 8.01019C1.69266 8.08231 1.62187 8.17309 1.57334 8.27595C1.52481 8.3788 1.49976 8.49116 1.5 8.60489V20.0666C1.5 20.4878 1.8353 20.829 2.25 20.829H5.25C5.66412 20.829 6 20.4878 6 20.0666V14.559C6 13.2967 7.00765 12.2731 8.25 12.2731H11.75C12.9924 12.2731 14 13.2967 14 14.559V20.0672C14 20.4884 14.3353 20.8296 14.75 20.8296H17.75C18.1641 20.8296 18.5 20.4884 18.5 20.0672V8.60489C18.5003 8.49123 18.4753 8.37893 18.4268 8.27616C18.3782 8.17339 18.3074 8.08273 18.2194 8.01077L10.4694 1.69195Z" fill="#A0A0A0"/>
</svg>
