<svg width="20" height="24" viewBox="0 0 20 24" fill="none" xmlns="http://www.w3.org/2000/svg">
<path d="M13.2706 18.1673V18.9847C13.2706 19.852 12.9261 20.6837 12.3128 21.297C11.6996 21.9102 10.8679 22.2547 10.0006 22.2547C9.13336 22.2547 8.30164 21.9102 7.6884 21.297C7.07517 20.6837 6.73066 19.852 6.73066 18.9847V18.1673M18.7723 16.5032C17.4602 14.8973 16.5339 14.0798 16.5339 9.65261C16.5339 5.59837 14.4636 4.15397 12.7596 3.45247C12.5333 3.35948 12.3202 3.14591 12.2513 2.91343C11.9524 1.89617 11.1144 1 10.0006 1C8.88678 1 8.04835 1.89668 7.75252 2.91446C7.68354 3.14948 7.47048 3.35948 7.24414 3.45247C5.53814 4.155 3.4699 5.59429 3.4699 9.65261C3.46734 14.0798 2.54103 14.8973 1.22896 16.5032C0.685328 17.1684 1.16151 18.1673 2.11236 18.1673H17.894C18.8397 18.1673 19.3128 17.1653 18.7723 16.5032Z" stroke="#A0A0A0" stroke-width="1.5" stroke-linecap="round" stroke-linejoin="round"/>
</svg>
