<svg width="20" height="21" viewBox="0 0 20 21" fill="none" xmlns="http://www.w3.org/2000/svg">
<path d="M9.993 10.5727C10.5839 10.5727 11.1691 10.4563 11.715 10.2302C12.261 10.004 12.757 9.67259 13.1749 9.25474C13.5927 8.83688 13.9242 8.34082 14.1503 7.79487C14.3765 7.24892 14.4929 6.66377 14.4929 6.07284C14.4929 5.48191 14.3765 4.89676 14.1503 4.35081C13.9242 3.80486 13.5927 3.3088 13.1749 2.89094C12.757 2.47309 12.261 2.14163 11.715 1.91549C11.1691 1.68935 10.5839 1.57296 9.993 1.57296C8.79956 1.57296 7.65499 2.04705 6.8111 2.89094C5.96721 3.73483 5.49312 4.8794 5.49312 6.07284C5.49312 7.26628 5.96721 8.41084 6.8111 9.25474C7.65499 10.0986 8.79956 10.5727 9.993 10.5727ZM10 3.18539e-07C11.3172 -0.000428741 12.5979 0.432597 13.6445 1.23227C14.6912 2.03193 15.4456 3.1538 15.7914 4.42477C16.1371 5.69575 16.0551 7.04519 15.5578 8.26489C15.0606 9.48459 14.1758 10.5068 13.0399 11.1737C16.7278 12.2837 19.4978 15.3916 19.9947 19.2515C20.0417 19.6185 19.7687 19.9515 19.3848 19.9965C19.0018 20.0415 18.6518 19.7815 18.6048 19.4145C18.0648 15.2246 14.4359 12.0697 10.035 12.0697C5.61012 12.0697 1.93421 15.2306 1.39523 19.4145C1.34823 19.7815 0.998237 20.0415 0.615247 19.9965C0.231257 19.9515 -0.0417357 19.6185 0.00526311 19.2515C0.50125 15.4076 3.28618 12.3037 6.98008 11.1837C5.8408 10.5198 4.95195 9.49905 4.45098 8.27931C3.95001 7.05956 3.86482 5.70875 4.20857 4.43573C4.55232 3.16271 5.30587 2.03839 6.35272 1.2366C7.39956 0.434807 8.68138 0.000209256 10 3.18539e-07Z" fill="#A0A0A0"/>
</svg>
