<svg width="20" height="20" viewBox="0 0 20 20" fill="none" xmlns="http://www.w3.org/2000/svg">
<mask id="path-1-inside-1_68_563" fill="white">
<path d="M16.9055 15.8618L19.7925 18.7474C19.9272 18.8868 20.0017 19.0735 20 19.2673C19.9983 19.4611 19.9206 19.6465 19.7835 19.7835C19.6465 19.9206 19.4611 19.9983 19.2673 20C19.0735 20.0017 18.8868 19.9272 18.7474 19.7925L15.8604 16.9055C13.9737 18.5219 11.5344 19.3447 9.05418 19.2013C6.57396 19.058 4.24567 17.9595 2.55788 16.1365C0.870078 14.3135 -0.0460314 11.9076 0.00178169 9.42375C0.0495948 6.93986 1.05761 4.57102 2.81432 2.81432C4.57102 1.05761 6.93986 0.0495948 9.42375 0.00178169C11.9076 -0.0460314 14.3135 0.870078 16.1365 2.55788C17.9595 4.24567 19.058 6.57396 19.2013 9.05418C19.3447 11.5344 18.5219 13.9737 16.9055 15.8604V15.8618ZM9.6088 17.7392C11.7651 17.7392 13.8331 16.8826 15.3579 15.3579C16.8826 13.8331 17.7392 11.7651 17.7392 9.6088C17.7392 7.45248 16.8826 5.38447 15.3579 3.85972C13.8331 2.33497 11.7651 1.47838 9.6088 1.47838C7.45248 1.47838 5.38447 2.33497 3.85972 3.85972C2.33497 5.38447 1.47838 7.45248 1.47838 9.6088C1.47838 11.7651 2.33497 13.8331 3.85972 15.3579C5.38447 16.8826 7.45248 17.7392 9.6088 17.7392Z"/>
</mask>
<path d="M16.9055 15.8618L19.7925 18.7474C19.9272 18.8868 20.0017 19.0735 20 19.2673C19.9983 19.4611 19.9206 19.6465 19.7835 19.7835C19.6465 19.9206 19.4611 19.9983 19.2673 20C19.0735 20.0017 18.8868 19.9272 18.7474 19.7925L15.8604 16.9055C13.9737 18.5219 11.5344 19.3447 9.05418 19.2013C6.57396 19.058 4.24567 17.9595 2.55788 16.1365C0.870078 14.3135 -0.0460314 11.9076 0.00178169 9.42375C0.0495948 6.93986 1.05761 4.57102 2.81432 2.81432C4.57102 1.05761 6.93986 0.0495948 9.42375 0.00178169C11.9076 -0.0460314 14.3135 0.870078 16.1365 2.55788C17.9595 4.24567 19.058 6.57396 19.2013 9.05418C19.3447 11.5344 18.5219 13.9737 16.9055 15.8604V15.8618ZM9.6088 17.7392C11.7651 17.7392 13.8331 16.8826 15.3579 15.3579C16.8826 13.8331 17.7392 11.7651 17.7392 9.6088C17.7392 7.45248 16.8826 5.38447 15.3579 3.85972C13.8331 2.33497 11.7651 1.47838 9.6088 1.47838C7.45248 1.47838 5.38447 2.33497 3.85972 3.85972C2.33497 5.38447 1.47838 7.45248 1.47838 9.6088C1.47838 11.7651 2.33497 13.8331 3.85972 15.3579C5.38447 16.8826 7.45248 17.7392 9.6088 17.7392Z" fill="#A0A0A0"/>
<path d="M16.9055 15.8618H8.90548V19.1767L11.2501 21.5201L16.9055 15.8618ZM19.7925 18.7474L25.5468 13.1897L25.4978 13.139L25.4479 13.0891L19.7925 18.7474ZM18.7474 19.7925L13.0905 25.4494L13.1397 25.4985L13.1897 25.5468L18.7474 19.7925ZM15.8604 16.9055L21.5172 11.2486L16.2799 6.01133L10.6553 10.8303L15.8604 16.9055ZM16.9055 15.8604L10.8303 10.6553L8.90548 12.9019V15.8604H16.9055ZM9.6088 17.7392V25.7392V17.7392ZM17.7392 9.6088H25.7392H17.7392ZM9.6088 1.47838V-6.52162V1.47838ZM1.47838 9.6088H-6.52162H1.47838ZM11.2501 21.5201L14.1371 24.4057L25.4479 13.0891L22.5609 10.2035L11.2501 21.5201ZM14.0382 24.3051C12.7156 22.9357 11.9837 21.1016 12.0003 19.1978L27.9997 19.3368C28.0196 17.0454 27.1387 14.8379 25.5468 13.1897L14.0382 24.3051ZM12.0003 19.1978C12.0168 17.294 12.7805 15.4729 14.1267 14.1267L25.4404 25.4404C27.0607 23.8201 27.9798 21.6282 27.9997 19.3368L12.0003 19.1978ZM14.1267 14.1267C15.4729 12.7805 17.294 12.0168 19.1978 12.0003L19.3368 27.9997C21.6282 27.9798 23.8201 27.0607 25.4404 25.4404L14.1267 14.1267ZM19.1978 12.0003C21.1016 11.9837 22.9357 12.7156 24.3051 14.0382L13.1897 25.5468C14.8379 27.1387 17.0454 28.0196 19.3368 27.9997L19.1978 12.0003ZM24.4042 14.1357L21.5172 11.2486L10.2035 22.5623L13.0905 25.4494L24.4042 14.1357ZM10.6553 10.8303C10.3395 11.1009 9.93108 11.2387 9.51585 11.2147L8.59251 27.188C13.1377 27.4507 17.608 25.9428 21.0654 22.9807L10.6553 10.8303ZM9.51585 11.2147C9.10061 11.1907 8.71081 11.0068 8.42824 10.7016L-3.31249 21.5715C-0.219462 24.9123 4.04731 26.9253 8.59251 27.188L9.51585 11.2147ZM8.42824 10.7016C8.14567 10.3964 7.9923 9.99357 8.0003 9.57772L-7.99674 9.26979C-8.08436 13.8217 -6.40551 18.2307 -3.31249 21.5715L8.42824 10.7016ZM8.0003 9.57772C8.0083 9.16187 8.17707 8.76528 8.47117 8.47117L-2.84254 -2.84254C-6.06184 0.376768 -7.90912 4.71785 -7.99674 9.26979L8.0003 9.57772ZM8.47117 8.47117C8.76528 8.17707 9.16187 8.0083 9.57772 8.0003L9.26979 -7.99674C4.71785 -7.90912 0.376768 -6.06184 -2.84254 -2.84254L8.47117 8.47117ZM9.57772 8.0003C9.99357 7.9923 10.3964 8.14567 10.7016 8.42824L21.5715 -3.31249C18.2307 -6.40551 13.8217 -8.08436 9.26979 -7.99674L9.57772 8.0003ZM10.7016 8.42824C11.0068 8.71081 11.1907 9.10061 11.2147 9.51585L27.188 8.59251C26.9253 4.04731 24.9123 -0.219462 21.5715 -3.31249L10.7016 8.42824ZM11.2147 9.51585C11.2387 9.93108 11.1009 10.3395 10.8303 10.6553L22.9807 21.0654C25.9428 17.608 27.4507 13.1377 27.188 8.59251L11.2147 9.51585ZM8.90548 15.8604V15.8618H24.9055V15.8604H8.90548ZM9.6088 25.7392C13.8868 25.7392 17.9897 24.0398 21.0147 21.0147L9.70102 9.70102C9.67656 9.72548 9.64339 9.73922 9.6088 9.73922V25.7392ZM21.0147 21.0147C24.0398 17.9897 25.7392 13.8868 25.7392 9.6088H9.73922C9.73922 9.64339 9.72548 9.67656 9.70102 9.70102L21.0147 21.0147ZM25.7392 9.6088C25.7392 5.33075 24.0398 1.22791 21.0147 -1.79713L9.70102 9.51658C9.72548 9.54103 9.73922 9.57421 9.73922 9.6088H25.7392ZM21.0147 -1.79713C17.9897 -4.82217 13.8869 -6.52162 9.6088 -6.52162V9.47838C9.64339 9.47838 9.67656 9.49212 9.70102 9.51658L21.0147 -1.79713ZM9.6088 -6.52162C5.33074 -6.52162 1.22791 -4.82217 -1.79713 -1.79713L9.51658 9.51658C9.54104 9.49212 9.57421 9.47838 9.6088 9.47838V-6.52162ZM-1.79713 -1.79713C-4.82217 1.22791 -6.52162 5.33074 -6.52162 9.6088H9.47838C9.47838 9.57421 9.49212 9.54104 9.51658 9.51658L-1.79713 -1.79713ZM-6.52162 9.6088C-6.52162 13.8869 -4.82217 17.9897 -1.79713 21.0147L9.51658 9.70102C9.49212 9.67656 9.47838 9.64339 9.47838 9.6088H-6.52162ZM-1.79713 21.0147C1.22791 24.0398 5.33075 25.7392 9.6088 25.7392V9.73922C9.57421 9.73922 9.54103 9.72548 9.51658 9.70102L-1.79713 21.0147Z" fill="#A0A0A0" mask="url(#path-1-inside-1_68_563)"/>
</svg>
